<svg xmlns="http://www.w3.org/2000/svg" xmlns:xlink="http://www.w3.org/1999/xlink" viewBox="0,0,256,256" width="64px" height="64px" fill-rule="nonzero"><g fill="none" fill-rule="nonzero" stroke="none" stroke-width="1" stroke-linecap="butt" stroke-linejoin="miter" stroke-miterlimit="10" stroke-dasharray="" stroke-dashoffset="0" font-family="none" font-weight="none" font-size="none" text-anchor="none" style="mix-blend-mode: normal"><g transform="scale(4,4)"><path d="M40.172,44.001l3.917,-3.917l2.828,2.828l-3.917,3.917z" fill="#2292a4"></path><path d="M44.915,45.255l0.346,-0.346c1.562,-1.562 4.095,-1.562 5.657,0l10.26,10.26c1.562,1.562 1.562,4.095 0,5.657l-0.346,0.346c-1.562,1.562 -4.095,1.562 -5.657,0l-10.26,-10.26c-1.562,-1.562 -1.562,-4.095 0,-5.657z" fill="#393e46"></path><path d="M43.586,46.586v0c0.828,-0.828 2.17,-0.828 2.998,0l12.919,12.919c0.828,0.828 0.828,2.17 0,2.998v0c-0.828,0.828 -2.17,0.828 -2.998,0l-12.919,-12.918c-0.828,-0.828 -0.828,-2.171 0,-2.999z" fill="#393e46"></path><path d="M25,1c-13.255,0 -24,10.745 -24,24c0,13.255 10.745,24 24,24c13.255,0 24,-10.745 24,-24c0,-13.255 -10.745,-24 -24,-24z" fill-opacity="0.72157" fill="#393e46"></path><path d="M11.14,38.86l27.72,-27.72c1.562,-1.562 4.094,-1.563 5.657,-0.001c0.167,0.167 0.318,0.348 0.453,0.541c7.396,11 4.474,25.912 -6.525,33.308c-8.091,5.44 -18.669,5.445 -26.765,0.012c-1.819,-1.254 -2.277,-3.745 -1.023,-5.564c0.142,-0.206 0.304,-0.399 0.483,-0.576z" fill-opacity="0" fill="#393e46"></path><path d="M61.88,54.46l-10.34,-10.34c-0.956,-0.948 -2.254,-1.471 -3.6,-1.45c0,-0.14 -2.77,-2.91 -2.77,-2.91c8.154,-11.142 5.732,-26.785 -5.41,-34.939c-11.142,-8.154 -26.785,-5.732 -34.939,5.41c-8.154,11.142 -5.732,26.785 5.41,34.939c8.792,6.434 20.737,6.434 29.529,0c0,0 2.78,2.72 2.91,2.77c0.13,0.05 0,0 0,0.07c-0.002,1.327 0.523,2.6 1.46,3.54l10.33,10.33c1.952,1.952 5.118,1.952 7.07,0l0.34,-0.34c1.952,-1.952 1.952,-5.118 0,-7.07zM2,25c0,-12.703 10.297,-23 23,-23c12.703,0 23,10.297 23,23c0,12.703 -10.297,23 -23,23c-12.703,0 -23,-10.297 -23,-23zM44.12,44.46c-0.376,0.387 -0.687,0.833 -0.92,1.32l-1.87,-1.87c0.925,-0.799 1.791,-1.665 2.59,-2.59l1.88,1.88c-0.487,0.233 -0.933,0.544 -1.32,0.92zM60.46,60.12l-0.34,0.34c-1.171,1.17 -3.069,1.17 -4.24,0l-10.34,-10.34c-1.17,-1.171 -1.17,-3.069 0,-4.24l0.34,-0.34c1.171,-1.17 3.069,-1.17 4.24,0l10.34,10.34c1.17,1.171 1.17,3.069 0,4.24z" fill="#393e46"></path><g><path d="M25,7c-9.941,0 -18,8.059 -18,18c0,9.941 8.059,18 18,18c9.941,0 18,-8.059 18,-18c0,-9.941 -8.059,-18 -18,-18z" fill="#2292a4"></path><path d="M38.44,11.57c-7.42,-7.42 -19.45,-7.42 -26.87,0c-7.42,7.42 -7.42,19.45 0,26.87c7.42,7.42 19.45,7.42 26.87,0v0c7.42,-7.326 7.496,-19.28 0.17,-26.7c-0.056,-0.057 -0.113,-0.114 -0.17,-0.17zM37,37c-6.627,6.65 -17.391,6.669 -24.042,0.042c-6.651,-6.627 -6.669,-17.392 -0.041,-24.042c6.628,-6.65 17.391,-6.669 24.042,-0.042c0.013,0.014 0.027,0.028 0.041,0.042c6.627,6.564 6.679,17.258 0.114,23.886c-0.038,0.038 -0.076,0.076 -0.114,0.114z" fill="#393e46"></path><path d="M31.2,14.72c0.83,0.502 1.595,1.103 2.28,1.79c0.389,0.392 1.023,0.394 1.415,0.005c0.392,-0.389 0.394,-1.023 0.005,-1.415c-0.802,-0.805 -1.699,-1.51 -2.67,-2.1c-0.511,-0.21 -1.095,0.033 -1.306,0.543c-0.17,0.413 -0.046,0.89 0.306,1.167zM26.38,11.07c-4.166,-0.419 -8.3,1.049 -11.27,4c-0.419,0.359 -0.468,0.991 -0.109,1.41c0.359,0.419 0.991,0.468 1.41,0.109c0.039,-0.033 0.076,-0.07 0.109,-0.109c2.542,-2.544 6.091,-3.814 9.67,-3.46c0.552,0.055 1.045,-0.348 1.1,-0.9c0.055,-0.552 -0.348,-1.045 -0.9,-1.1z" fill="#393e46"></path><path d="M34.19,32.78c-0.419,-0.359 -1.051,-0.31 -1.41,0.109c-0.321,0.374 -0.321,0.927 0,1.301l1.41,1.41c0.419,0.359 1.051,0.31 1.41,-0.109c0.321,-0.374 0.321,-0.927 0,-1.301zM15.81,32.78l-1.41,1.41c-0.419,0.359 -0.468,0.991 -0.109,1.41c0.359,0.419 0.991,0.468 1.41,0.109c0.039,-0.034 0.076,-0.07 0.109,-0.109l1.41,-1.41c0.359,-0.419 0.31,-1.051 -0.109,-1.41c-0.374,-0.321 -0.927,-0.321 -1.301,0zM39,24h-2c-0.552,0 -1,0.448 -1,1c0,0.552 0.448,1 1,1h2c0.552,0 1,-0.448 1,-1c0,-0.552 -0.448,-1 -1,-1zM14,25c0,-0.552 -0.448,-1 -1,-1h-2c-0.552,0 -1,0.448 -1,1c0,0.552 0.448,1 1,1h2c0.552,0 1,-0.448 1,-1zM25,36c-0.552,0 -1,0.448 -1,1v2c0,0.552 0.448,1 1,1c0.552,0 1,-0.448 1,-1v-2c0,-0.552 -0.448,-1 -1,-1zM38.28,29.55l-1.84,-0.78c-0.5,-0.235 -1.095,-0.021 -1.331,0.479c-0.235,0.5 -0.021,1.095 0.479,1.331c0.023,0.011 0.047,0.021 0.071,0.03l1.84,0.78c0.5,0.235 1.095,0.021 1.331,-0.479c0.235,-0.5 0.021,-1.095 -0.479,-1.331c-0.023,-0.011 -0.047,-0.021 -0.071,-0.03zM20.7,35.13c-0.508,-0.215 -1.094,0.022 -1.31,0.53l-0.78,1.84c-0.235,0.5 -0.021,1.095 0.479,1.331c0.5,0.235 1.095,0.021 1.331,-0.479c0.011,-0.023 0.021,-0.047 0.03,-0.071l0.78,-1.84c0.215,-0.509 -0.022,-1.095 -0.53,-1.311zM14.8,29.12c-0.208,-0.51 -0.789,-0.756 -1.3,-0.55l-1.85,0.75c-0.524,0.176 -0.806,0.743 -0.63,1.266c0.176,0.524 0.743,0.806 1.266,0.63c0.039,-0.013 0.077,-0.028 0.113,-0.046l1.85,-0.75c0.511,-0.208 0.757,-0.789 0.551,-1.3zM30.42,35.75c-0.238,-0.498 -0.836,-0.709 -1.334,-0.47c-0.456,0.218 -0.677,0.741 -0.516,1.22l0.75,1.85c0.238,0.498 0.836,0.709 1.334,0.47c0.456,-0.218 0.677,-0.741 0.516,-1.22z" fill="#393e46"></path></g><g><path d="M25,18c-3.866,0 -7,3.134 -7,7c0,3.866 3.134,7 7,7c3.866,0 7,-3.134 7,-7c0,-3.866 -3.134,-7 -7,-7z" fill-opacity="0.47059" fill="#eeeeee"></path><path d="M21,17c-2.209,0 -4,1.791 -4,4c0,2.209 1.791,4 4,4c2.209,0 4,-1.791 4,-4c0,-2.209 -1.791,-4 -4,-4zM29.5,28c-0.828,0 -1.5,0.672 -1.5,1.5c0,0.828 0.672,1.5 1.5,1.5c0.828,0 1.5,-0.672 1.5,-1.5c0,-0.828 -0.672,-1.5 -1.5,-1.5z" fill-opacity="0.41961" fill="#eeeeee"></path></g></g></g></svg>